<?xml version="1.0" standalone="no"?>
<svg viewBox="0 0 200 200" xmlns="http://www.w3.org/2000/svg">
  <path fill="#D70000" d="M28.4,-41.9C41.2,-36,59.1,-35.6,66.2,-27.9C73.3,-20.3,69.7,-5.4,64.3,6.9C58.8,19.1,51.5,28.7,42.2,32.9C32.9,37.1,21.5,35.9,9.7,44.7C-2.1,53.5,-14.4,72.3,-25.5,74.6C-36.5,76.9,-46.2,62.6,-52.2,49C-58.3,35.3,-60.7,22.2,-59.8,10.2C-59,-1.7,-54.9,-12.4,-50.7,-23.8C-46.5,-35.2,-42.3,-47.2,-33.8,-55.1C-25.4,-63,-12.7,-66.8,-2.4,-63C7.8,-59.2,15.6,-47.8,28.4,-41.9Z" transform="translate(100 100)" />
</svg>
