<?xml version="1.0" standalone="no"?>
<svg viewBox="0 0 200 200" xmlns="http://www.w3.org/2000/svg">
  <path fill="#D70000" d="M24.4,-38.5C37,-30,56,-32.1,65,-25.8C73.9,-19.4,72.8,-4.6,69.2,8.9C65.5,22.3,59.5,34.3,50.3,42C41.1,49.6,28.8,53,15.7,59.6C2.7,66.1,-11.3,75.9,-25.7,76.6C-40.1,77.3,-55,68.9,-58,55.7C-61.1,42.4,-52.4,24.4,-52.6,8.8C-52.8,-6.7,-62,-19.6,-60.3,-29.2C-58.5,-38.9,-45.8,-45.2,-34,-54.1C-22.1,-62.9,-11.1,-74.2,-2.5,-70.3C6,-66.3,11.9,-47.1,24.4,-38.5Z" transform="translate(100 100)" />
</svg>
