<?xml version="1.0" standalone="no"?>
<svg viewBox="0 0 200 200" xmlns="http://www.w3.org/2000/svg">
  <path fill="#D70000" d="M25.5,-40.4C32.4,-35.3,36.9,-27.1,44.2,-18.2C51.4,-9.2,61.3,0.5,64.6,12.5C67.9,24.5,64.5,38.7,54.6,43.8C44.7,48.8,28.3,44.6,14,49.7C-0.3,54.8,-12.4,69.2,-21.7,68.7C-30.9,68.3,-37.3,53.1,-38.9,40C-40.4,26.9,-37.1,15.9,-41,4.4C-44.9,-7,-56,-18.8,-56,-28.3C-55.9,-37.8,-44.7,-44.9,-33.5,-48C-22.3,-51.2,-11.1,-50.5,-0.9,-49C9.3,-47.6,18.6,-45.5,25.5,-40.4Z" transform="translate(100 100)" />
</svg>
