<?xml version="1.0" standalone="no"?>
<svg viewBox="0 0 200 200" xmlns="http://www.w3.org/2000/svg">
  <path fill="#D70000" d="M35.9,-65C41.2,-52.4,36.6,-33.5,42.4,-19.7C48.3,-5.8,64.6,2.9,67.2,12.2C69.8,21.5,58.6,31.3,47.3,36.9C36.1,42.5,24.7,43.9,14.4,45.2C4.1,46.4,-5.1,47.5,-13.8,45.5C-22.5,43.6,-30.7,38.7,-36.3,31.7C-41.8,24.8,-44.6,15.8,-44.7,7.2C-44.8,-1.5,-42.1,-9.8,-37.5,-16C-32.9,-22.3,-26.4,-26.6,-19.8,-38.6C-13.2,-50.6,-6.6,-70.4,4.3,-77.1C15.3,-83.9,30.5,-77.6,35.9,-65Z" transform="translate(100 100)" />
</svg>
