<?xml version="1.0" standalone="no"?><svg xmlns="http://www.w3.org/2000/svg" viewBox="0 0 1440 320"><path fill="#d70000" fill-opacity="1" d="M0,256L26.7,218.7C53.3,181,107,107,160,85.3C213.3,64,267,96,320,122.7C373.3,149,427,171,480,170.7C533.3,171,587,149,640,165.3C693.3,181,747,235,800,245.3C853.3,256,907,224,960,224C1013.3,224,1067,256,1120,240C1173.3,224,1227,160,1280,149.3C1333.3,139,1387,181,1413,202.7L1440,224L1440,320L1413.3,320C1386.7,320,1333,320,1280,320C1226.7,320,1173,320,1120,320C1066.7,320,1013,320,960,320C906.7,320,853,320,800,320C746.7,320,693,320,640,320C586.7,320,533,320,480,320C426.7,320,373,320,320,320C266.7,320,213,320,160,320C106.7,320,53,320,27,320L0,320Z"></path></svg>