<?xml version="1.0" standalone="no"?><svg xmlns="http://www.w3.org/2000/svg" viewBox="0 0 1440 320"><path fill="#d70000" fill-opacity="1" d="M0,32L30,58.7C60,85,120,139,180,165.3C240,192,300,192,360,170.7C420,149,480,107,540,101.3C600,96,660,128,720,170.7C780,213,840,267,900,288C960,309,1020,299,1080,266.7C1140,235,1200,181,1260,138.7C1320,96,1380,64,1410,48L1440,32L1440,320L1410,320C1380,320,1320,320,1260,320C1200,320,1140,320,1080,320C1020,320,960,320,900,320C840,320,780,320,720,320C660,320,600,320,540,320C480,320,420,320,360,320C300,320,240,320,180,320C120,320,60,320,30,320L0,320Z"></path></svg>